<svg id="Layer_1" data-name="Layer 1" xmlns="http://www.w3.org/2000/svg" viewBox="0 0 449.52 137.24"><defs><style>.cls-1{fill:#134993;}</style></defs><title>Tact-title-blue</title><path class="cls-1" d="M341.72,15.49C315.81-6.3,272.12-3,249.39,22c-25.09,27.6-24,71.46,2.33,96.69,27.11,26,69.64,22.5,89.89,4l-6-8.63c-28.29,20.74-61.14,13.17-78-5.88-18.71-21.1-19.38-54.28-1.39-76.3A53.13,53.13,0,0,1,289.7,12.7c16.77-2.78,32,1.2,45.78,11.79ZM152,25.79c3.62,7.71,6.73,14.32,9.82,20.94q20.28,43.39,40.61,86.75c.69,1.46,2.08,3.37,3.39,3.59,3.14.53,6.42.17,10.49.17L151.87,2.44l-64,134.36c11.46,1.45,11.59,1.39,15.09-6.13Q119.6,95,136.26,59.24C141.31,48.43,146.41,37.64,152,25.79ZM87.42,4.45H.38c-.09,1.8-.06,3.43-.28,5-.52,4,.8,5.78,5.15,5.46,4.8-.36,9.66-.08,14.49-.08H38V136.93H49.66V14.73H87.42ZM411.76,137.1V14.74h37.76V4.52h-86.7V15h37.94V137.1Z"/><path class="cls-1" d="M341.72,15.49l-6.24,9c-13.81-10.58-29-14.57-45.78-11.79a53.13,53.13,0,0,0-33.49,19.15c-18,22-17.32,55.21,1.39,76.3,16.89,19,49.74,26.62,78,5.88l6,8.63c-20.25,18.51-62.78,22-89.89-4C225.4,93.44,224.3,49.58,249.39,22,272.12-3,315.81-6.3,341.72,15.49Z"/><path class="cls-1" d="M152,25.79c-5.57,11.85-10.67,22.64-15.71,33.45Q119.59,94.94,103,130.67c-3.5,7.51-3.63,7.57-15.09,6.13l64-134.36,64.42,134.8c-4.07,0-7.35.36-10.49-.17-1.31-.22-2.7-2.13-3.39-3.59Q182,90.14,161.8,46.72C158.71,40.11,155.6,33.5,152,25.79Z"/><path class="cls-1" d="M87.42,4.45V14.73H49.66v122.2H38V14.86H19.75c-4.83,0-9.68-.28-14.49.08C.91,15.26-.42,13.48.11,9.48c.21-1.6.18-3.24.28-5Z"/><path class="cls-1" d="M411.76,137.1h-11V15H362.82V4.52h86.7V14.74H411.76Z"/></svg>